<mxfile host="Electron" modified="2024-05-12T14:08:13.216Z" agent="Mozilla/5.0 (Windows NT 10.0; Win64; x64) AppleWebKit/537.36 (KHTML, like Gecko) draw.io/24.2.5 Chrome/120.0.6099.109 Electron/28.1.0 Safari/537.36" etag="QHIVJO_SbeAh8KtDg1hD" version="24.2.5" type="device">
  <diagram name="Page-1" id="8IFpe5Jo3QOATeVe6Z-S">
    <mxGraphModel dx="1036" dy="606" grid="1" gridSize="10" guides="1" tooltips="1" connect="1" arrows="1" fold="1" page="1" pageScale="1" pageWidth="850" pageHeight="1100" math="0" shadow="0">
      <root>
        <mxCell id="0" />
        <mxCell id="1" parent="0" />
        <mxCell id="jjNX6o60jusu_IUlbbSe-35" style="edgeStyle=orthogonalEdgeStyle;rounded=0;orthogonalLoop=1;jettySize=auto;html=1;exitX=0;exitY=0.5;exitDx=0;exitDy=0;entryX=1;entryY=0.75;entryDx=0;entryDy=0;" edge="1" parent="1" source="jjNX6o60jusu_IUlbbSe-1" target="jjNX6o60jusu_IUlbbSe-9">
          <mxGeometry relative="1" as="geometry" />
        </mxCell>
        <mxCell id="jjNX6o60jusu_IUlbbSe-36" style="edgeStyle=orthogonalEdgeStyle;rounded=0;orthogonalLoop=1;jettySize=auto;html=1;" edge="1" parent="1">
          <mxGeometry relative="1" as="geometry">
            <mxPoint x="490" y="280" as="targetPoint" />
            <mxPoint x="590" y="280" as="sourcePoint" />
          </mxGeometry>
        </mxCell>
        <mxCell id="jjNX6o60jusu_IUlbbSe-37" style="edgeStyle=orthogonalEdgeStyle;rounded=0;orthogonalLoop=1;jettySize=auto;html=1;exitX=0;exitY=0.5;exitDx=0;exitDy=0;entryX=1;entryY=0.5;entryDx=0;entryDy=0;" edge="1" parent="1" source="jjNX6o60jusu_IUlbbSe-1" target="jjNX6o60jusu_IUlbbSe-27">
          <mxGeometry relative="1" as="geometry" />
        </mxCell>
        <mxCell id="jjNX6o60jusu_IUlbbSe-1" value="Karyawan" style="swimlane;whiteSpace=wrap;html=1;" vertex="1" parent="1">
          <mxGeometry x="590" y="170" width="180" height="220" as="geometry" />
        </mxCell>
        <mxCell id="jjNX6o60jusu_IUlbbSe-2" value="+ Nama(String)" style="text;html=1;align=left;verticalAlign=middle;resizable=0;points=[];autosize=1;strokeColor=none;fillColor=none;" vertex="1" parent="jjNX6o60jusu_IUlbbSe-1">
          <mxGeometry x="10" y="30" width="110" height="30" as="geometry" />
        </mxCell>
        <mxCell id="jjNX6o60jusu_IUlbbSe-4" value="+ Umur(int)" style="text;html=1;align=left;verticalAlign=middle;resizable=0;points=[];autosize=1;strokeColor=none;fillColor=none;" vertex="1" parent="jjNX6o60jusu_IUlbbSe-1">
          <mxGeometry x="10" y="60" width="80" height="30" as="geometry" />
        </mxCell>
        <mxCell id="jjNX6o60jusu_IUlbbSe-5" value="+ Jabatan(String)" style="text;html=1;align=left;verticalAlign=middle;resizable=0;points=[];autosize=1;strokeColor=none;fillColor=none;" vertex="1" parent="jjNX6o60jusu_IUlbbSe-1">
          <mxGeometry x="10" y="90" width="120" height="30" as="geometry" />
        </mxCell>
        <mxCell id="jjNX6o60jusu_IUlbbSe-6" value="+ Gaji(double)" style="text;html=1;align=left;verticalAlign=middle;resizable=0;points=[];autosize=1;strokeColor=none;fillColor=none;" vertex="1" parent="jjNX6o60jusu_IUlbbSe-1">
          <mxGeometry x="10" y="120" width="100" height="30" as="geometry" />
        </mxCell>
        <mxCell id="jjNX6o60jusu_IUlbbSe-8" value="+ Arraylist(DaftarKaryawan)" style="text;html=1;align=left;verticalAlign=middle;resizable=0;points=[];autosize=1;strokeColor=none;fillColor=none;" vertex="1" parent="jjNX6o60jusu_IUlbbSe-1">
          <mxGeometry x="10" y="160" width="170" height="30" as="geometry" />
        </mxCell>
        <mxCell id="jjNX6o60jusu_IUlbbSe-18" value="+ Constructor" style="text;html=1;align=left;verticalAlign=middle;resizable=0;points=[];autosize=1;strokeColor=none;fillColor=none;" vertex="1" parent="jjNX6o60jusu_IUlbbSe-1">
          <mxGeometry x="10" y="188" width="100" height="30" as="geometry" />
        </mxCell>
        <mxCell id="jjNX6o60jusu_IUlbbSe-7" value="" style="endArrow=none;html=1;rounded=0;" edge="1" parent="1">
          <mxGeometry width="50" height="50" relative="1" as="geometry">
            <mxPoint x="590" y="325" as="sourcePoint" />
            <mxPoint x="770" y="325" as="targetPoint" />
          </mxGeometry>
        </mxCell>
        <mxCell id="jjNX6o60jusu_IUlbbSe-39" style="edgeStyle=orthogonalEdgeStyle;rounded=0;orthogonalLoop=1;jettySize=auto;html=1;exitX=0;exitY=0.5;exitDx=0;exitDy=0;entryX=1;entryY=0.5;entryDx=0;entryDy=0;" edge="1" parent="1" source="jjNX6o60jusu_IUlbbSe-9" target="jjNX6o60jusu_IUlbbSe-31">
          <mxGeometry relative="1" as="geometry" />
        </mxCell>
        <mxCell id="jjNX6o60jusu_IUlbbSe-9" value="Pengalaman" style="swimlane;whiteSpace=wrap;html=1;" vertex="1" parent="1">
          <mxGeometry x="270" y="40" width="220" height="140" as="geometry" />
        </mxCell>
        <mxCell id="jjNX6o60jusu_IUlbbSe-16" value="+ PengalamanKerja(String)" style="text;html=1;align=left;verticalAlign=middle;resizable=0;points=[];autosize=1;strokeColor=none;fillColor=none;" vertex="1" parent="jjNX6o60jusu_IUlbbSe-9">
          <mxGeometry x="10" y="28" width="170" height="30" as="geometry" />
        </mxCell>
        <mxCell id="jjNX6o60jusu_IUlbbSe-17" value="+ PengalamanBerorganisasi(String)" style="text;html=1;align=left;verticalAlign=middle;resizable=0;points=[];autosize=1;strokeColor=none;fillColor=none;" vertex="1" parent="jjNX6o60jusu_IUlbbSe-9">
          <mxGeometry x="10" y="55" width="210" height="30" as="geometry" />
        </mxCell>
        <mxCell id="jjNX6o60jusu_IUlbbSe-21" value="+ Constructor" style="text;html=1;align=left;verticalAlign=middle;resizable=0;points=[];autosize=1;strokeColor=none;fillColor=none;" vertex="1" parent="jjNX6o60jusu_IUlbbSe-9">
          <mxGeometry x="10" y="110" width="100" height="30" as="geometry" />
        </mxCell>
        <mxCell id="jjNX6o60jusu_IUlbbSe-40" value="+ Setter dan Getter" style="text;html=1;align=left;verticalAlign=middle;resizable=0;points=[];autosize=1;strokeColor=none;fillColor=none;" vertex="1" parent="jjNX6o60jusu_IUlbbSe-9">
          <mxGeometry x="10" y="90" width="130" height="30" as="geometry" />
        </mxCell>
        <mxCell id="jjNX6o60jusu_IUlbbSe-20" value="" style="endArrow=none;html=1;rounded=0;" edge="1" parent="1">
          <mxGeometry width="50" height="50" relative="1" as="geometry">
            <mxPoint x="270" y="130" as="sourcePoint" />
            <mxPoint x="490" y="130" as="targetPoint" />
          </mxGeometry>
        </mxCell>
        <mxCell id="jjNX6o60jusu_IUlbbSe-22" value="Pendidikan" style="swimlane;whiteSpace=wrap;html=1;" vertex="1" parent="1">
          <mxGeometry x="270" y="210" width="220" height="110" as="geometry" />
        </mxCell>
        <mxCell id="jjNX6o60jusu_IUlbbSe-23" value="+ PendidikanTerakhir(String)" style="text;html=1;align=left;verticalAlign=middle;resizable=0;points=[];autosize=1;strokeColor=none;fillColor=none;" vertex="1" parent="jjNX6o60jusu_IUlbbSe-22">
          <mxGeometry x="10" y="28" width="180" height="30" as="geometry" />
        </mxCell>
        <mxCell id="jjNX6o60jusu_IUlbbSe-25" value="+ Constructor" style="text;html=1;align=left;verticalAlign=middle;resizable=0;points=[];autosize=1;strokeColor=none;fillColor=none;" vertex="1" parent="jjNX6o60jusu_IUlbbSe-22">
          <mxGeometry x="10" y="60" width="100" height="30" as="geometry" />
        </mxCell>
        <mxCell id="jjNX6o60jusu_IUlbbSe-26" value="" style="endArrow=none;html=1;rounded=0;" edge="1" parent="jjNX6o60jusu_IUlbbSe-22">
          <mxGeometry width="50" height="50" relative="1" as="geometry">
            <mxPoint y="62" as="sourcePoint" />
            <mxPoint x="220" y="62" as="targetPoint" />
          </mxGeometry>
        </mxCell>
        <mxCell id="jjNX6o60jusu_IUlbbSe-42" value="+ Setter dan Getter" style="text;html=1;align=left;verticalAlign=middle;resizable=0;points=[];autosize=1;strokeColor=none;fillColor=none;" vertex="1" parent="jjNX6o60jusu_IUlbbSe-22">
          <mxGeometry x="10" y="80" width="130" height="30" as="geometry" />
        </mxCell>
        <mxCell id="jjNX6o60jusu_IUlbbSe-27" value="Projek" style="swimlane;whiteSpace=wrap;html=1;" vertex="1" parent="1">
          <mxGeometry x="270" y="350" width="220" height="110" as="geometry" />
        </mxCell>
        <mxCell id="jjNX6o60jusu_IUlbbSe-28" value="+ Jumlahprojek(int)" style="text;html=1;align=left;verticalAlign=middle;resizable=0;points=[];autosize=1;strokeColor=none;fillColor=none;" vertex="1" parent="jjNX6o60jusu_IUlbbSe-27">
          <mxGeometry x="10" y="28" width="130" height="30" as="geometry" />
        </mxCell>
        <mxCell id="jjNX6o60jusu_IUlbbSe-29" value="+ Constructor" style="text;html=1;align=left;verticalAlign=middle;resizable=0;points=[];autosize=1;strokeColor=none;fillColor=none;" vertex="1" parent="jjNX6o60jusu_IUlbbSe-27">
          <mxGeometry x="10" y="60" width="100" height="30" as="geometry" />
        </mxCell>
        <mxCell id="jjNX6o60jusu_IUlbbSe-30" value="" style="endArrow=none;html=1;rounded=0;" edge="1" parent="jjNX6o60jusu_IUlbbSe-27">
          <mxGeometry width="50" height="50" relative="1" as="geometry">
            <mxPoint y="64" as="sourcePoint" />
            <mxPoint x="220" y="64" as="targetPoint" />
          </mxGeometry>
        </mxCell>
        <mxCell id="jjNX6o60jusu_IUlbbSe-41" value="+ Setter dan Getter" style="text;html=1;align=left;verticalAlign=middle;resizable=0;points=[];autosize=1;strokeColor=none;fillColor=none;" vertex="1" parent="jjNX6o60jusu_IUlbbSe-27">
          <mxGeometry x="10" y="80" width="130" height="30" as="geometry" />
        </mxCell>
        <mxCell id="jjNX6o60jusu_IUlbbSe-31" value="Kehidupan" style="swimlane;whiteSpace=wrap;html=1;" vertex="1" parent="1">
          <mxGeometry x="20" y="40" width="220" height="70" as="geometry" />
        </mxCell>
        <mxCell id="jjNX6o60jusu_IUlbbSe-32" value="+ Proseskehidupan(void)" style="text;html=1;align=left;verticalAlign=middle;resizable=0;points=[];autosize=1;strokeColor=none;fillColor=none;" vertex="1" parent="jjNX6o60jusu_IUlbbSe-31">
          <mxGeometry x="10" y="28" width="160" height="30" as="geometry" />
        </mxCell>
      </root>
    </mxGraphModel>
  </diagram>
</mxfile>
